<svg viewBox="0 0 512 512" xmlns="http://www.w3.org/2000/svg" xmlns:xlink="http://www.w3.org/1999/xlink"><linearGradient id="a" gradientTransform="matrix(1 0 0 -1 0 -13734)" gradientUnits="userSpaceOnUse" x1="0" x2="512" y1="-13990" y2="-13990"><stop offset="0" stop-color="#00f38d"/><stop offset="1" stop-color="#009eff"/></linearGradient><path d="m512 256c0 141.386719-114.613281 256-256 256s-256-114.613281-256-256 114.613281-256 256-256 256 114.613281 256 256zm0 0" fill="url(#a)"/><g fill="#fff"><path d="m240 134.59375v208.644531h30v-208.644531l46.859375 46.859375 21.210937-21.214844-83.070312-83.070312-83.070312 83.070312 21.210937 21.214844zm0 0"/><path d="m379.328125 327.980469c-21.875-6.355469-51.191406-10.769531-84.777344-12.765625l-1.777343 29.945312c54.757812 3.253906 85.277343 12.554688 96.253906 18.5625-5.671875 3.132813-17.285156 7.710938-38.210938 11.753906-26.585937 5.132813-60.613281 7.964844-95.816406 7.964844-35.199219 0-69.226562-2.832031-95.816406-7.964844-20.925782-4.042968-32.539063-8.621093-38.210938-11.753906 10.980469-6.007812 41.5-15.308594 96.257813-18.5625l-1.78125-29.945312c-33.585938 1.996094-62.898438 6.410156-84.777344 12.765625-10.675781 3.101562-43.167969 12.542969-43.167969 35.769531 0 23.609375 32.152344 33.652344 56.335938 39.15625 29.863281 6.792969 69.339844 10.535156 111.160156 10.535156s81.296875-3.742187 111.160156-10.535156c24.1875-5.5 56.339844-15.546875 56.339844-39.15625 0-23.226562-32.492188-32.667969-43.171875-35.769531zm0 0"/></g></svg>